<svg width="98" height="29" viewBox="0 0 98 29" fill="none" xmlns="http://www.w3.org/2000/svg">
<mask id="mask0_2495_2041" style="mask-type:luminance" maskUnits="userSpaceOnUse" x="0" y="0" width="98" height="29">
<path d="M97.6988 0H0V29H97.6988V0Z" fill="white"/>
</mask>
<g mask="url(#mask0_2495_2041)">
<path d="M9.55101 6.19755C9.09621 5.70938 8.55564 5.32183 7.9368 5.03862C7.31426 4.7554 6.64693 4.6138 5.92743 4.6138C4.67111 4.6138 3.64966 4.98645 2.86306 5.73174V3.6002H0.697128C1.07365 3.44369 1.55456 3.17538 2.03546 2.71703C3.04201 1.7556 2.86306 0.0600586 2.86306 0.0600586H0V15.1746H2.44553L2.85933 14.284C3.17621 14.6156 3.61611 14.8877 4.1753 15.1038C4.73449 15.3162 5.31605 15.4243 5.92371 15.4243C6.6432 15.4243 7.31047 15.2827 7.93309 14.9994C8.55564 14.7162 9.09249 14.3287 9.5473 13.8405C10.0021 13.3523 10.3599 12.7785 10.6134 12.1226C10.8707 11.4668 10.9974 10.7662 10.9974 10.0209C10.9974 9.27563 10.8707 8.57501 10.6134 7.91917C10.3562 7.26333 10.0021 6.68945 9.5473 6.20127L9.55101 6.19755ZM8.01878 11.1351C7.88089 11.4817 7.68702 11.7798 7.43723 12.0369C7.1875 12.294 6.90044 12.4953 6.5761 12.6481C6.25177 12.8008 5.90134 12.8754 5.52854 12.8754C5.15575 12.8754 4.80532 12.8158 4.48099 12.7002C4.15666 12.5847 3.87333 12.4096 3.63102 12.1823C3.3887 11.955 3.19858 11.6643 3.06065 11.314C2.92271 10.9637 2.85188 10.5463 2.85188 10.0619C2.85188 9.52528 2.92271 9.07068 3.06065 8.70548C3.19858 8.34028 3.3887 8.04214 3.63102 7.81484C3.87333 7.58754 4.15666 7.4198 4.48099 7.31925C4.80532 7.21485 5.15575 7.16271 5.52854 7.16271C5.90134 7.16271 6.24804 7.23727 6.5761 7.39002C6.90044 7.54284 7.1875 7.744 7.43723 8.00115C7.68702 8.2583 7.88089 8.56016 8.01878 8.91414C8.15675 9.26813 8.22758 9.63711 8.22758 10.0209C8.22758 10.4047 8.15675 10.7923 8.01878 11.1388V11.1351ZM20.0601 5.91806C19.7022 5.46344 19.2436 5.13178 18.6919 4.9231C18.1402 4.71442 17.5325 4.6138 16.869 4.6138C16.1383 4.6138 15.4635 4.7554 14.8484 5.03862C14.2333 5.32183 13.7002 5.70938 13.2417 6.19755C12.7869 6.68945 12.429 7.25962 12.1755 7.91546C11.9182 8.5713 11.7915 9.27191 11.7915 10.0172C11.7915 10.7625 11.9182 11.463 12.1755 12.1189C12.4327 12.7748 12.7869 13.3486 13.2417 13.8368C13.6965 14.3287 14.2333 14.7125 14.8484 14.9957C15.4635 15.2789 16.1345 15.4206 16.869 15.4206C17.4766 15.4206 18.0582 15.3311 18.6211 15.1523C19.1803 14.9734 19.6612 14.6156 20.0601 14.0753L20.3508 15.1709H22.815V4.90447H20.3508L20.0601 5.91806ZM19.1579 12.1823C18.6397 12.6444 18.0097 12.8754 17.2641 12.8754C16.8913 12.8754 16.5409 12.8008 16.2166 12.6481C15.8922 12.4953 15.6052 12.294 15.3554 12.0369C15.1057 11.7798 14.9118 11.4817 14.7738 11.1351C14.6359 10.7885 14.5651 10.4159 14.5651 10.0172C14.5651 9.61847 14.6322 9.2607 14.7738 8.91043C14.9118 8.56016 15.1057 8.25459 15.3554 7.99744C15.6052 7.744 15.8922 7.53905 16.2166 7.3863C16.5409 7.23349 16.8913 7.159 17.2641 7.159C17.6369 7.159 17.9873 7.21113 18.3117 7.31547C18.636 7.4198 18.9193 7.58383 19.1617 7.81113C19.4039 8.03843 19.5978 8.33657 19.7432 8.70177C19.8886 9.06696 19.9594 9.51785 19.9594 10.0582C19.9445 11.0121 19.6798 11.7165 19.1617 12.1823H19.1579ZM49.358 4.9231L49.0672 5.93669C48.7093 5.48207 48.2508 5.15042 47.6991 4.94173C47.1473 4.73305 46.5397 4.63243 45.8761 4.63243C45.1454 4.63243 44.4707 4.77404 43.8555 5.05725C43.2404 5.34046 42.7074 5.72802 42.2488 6.21618C41.794 6.70808 41.4361 7.27826 41.1826 7.9341C40.9254 8.58994 40.7987 9.29055 40.7987 10.0358C40.7987 10.7811 40.9254 11.4817 41.1826 12.1376C41.4398 12.7934 41.794 13.3673 42.2488 13.8554C42.7036 14.3473 43.2404 14.7311 43.8555 15.0144C44.4707 15.2976 45.1417 15.4392 45.8761 15.4392C46.4838 15.4392 47.069 15.3498 47.6283 15.1709C48.1875 14.992 48.6683 14.6342 49.0672 14.0939L49.358 15.1895H51.8222V4.9231H49.358ZM48.1688 12.2009C47.6506 12.6629 47.0206 12.894 46.275 12.894C45.9022 12.894 45.5518 12.8195 45.2275 12.6667C44.9031 12.5139 44.6161 12.3127 44.3663 12.0556C44.1166 11.7984 43.9227 11.5003 43.7847 11.1537C43.6468 10.8072 43.5797 10.4346 43.5797 10.0358C43.5797 9.63711 43.6468 9.27934 43.7847 8.92907C43.9227 8.57873 44.1166 8.27316 44.3663 8.01608C44.6161 7.76264 44.9031 7.55769 45.2275 7.40494C45.5518 7.25212 45.9022 7.17764 46.275 7.17764C46.6478 7.17764 46.9982 7.22977 47.3226 7.3341C47.6469 7.43844 47.9302 7.6024 48.1725 7.82976C48.4148 8.05707 48.6087 8.35514 48.7541 8.72034C48.8995 9.08553 48.9703 9.53649 48.9703 10.0768C48.9554 11.0308 48.6907 11.7351 48.1725 12.2009H48.1688ZM38.7036 4.81875L35.8032 12.417L32.8842 4.81875H31.7509C30.681 4.68088 28.2541 4.543 27.3408 5.95533C27.1954 6.18264 26.6846 7.48321 26.5467 7.70301L26.5765 4.89701H23.6874V15.1672H26.5467V9.7228C26.5467 9.36503 26.6287 9.02969 26.7965 8.72034C26.9642 8.41105 27.1842 8.14276 27.4601 7.92289C27.7359 7.70301 28.064 7.52791 28.4442 7.40494C28.8245 7.28197 29.2345 7.21863 29.6782 7.21863C29.8012 7.21863 29.9391 7.22977 30.092 7.24841C30.2448 7.27076 30.3828 7.29311 30.5058 7.31925C30.543 7.33039 30.6698 7.33782 30.845 7.34903L33.9653 15.0852H37.6523L41.794 4.81503H38.7073L38.7036 4.81875Z" fill="#999999"/>
<path d="M59.663 4.84106H54.623L55.6482 7.38616H59.6071V12.0254C59.6071 12.6887 59.7003 13.2439 59.8867 13.6911C60.0731 14.1383 60.3266 14.4997 60.6434 14.768C60.9603 15.0363 61.3182 15.2263 61.7208 15.3381C62.1197 15.4499 62.5409 15.5021 62.9845 15.5021C63.3722 15.5021 63.7562 15.4648 64.1439 15.3903C64.5315 15.3158 64.8968 15.2226 65.2398 15.1146V12.7297C64.8521 12.8825 64.4682 12.957 64.0805 12.957C63.5959 12.957 63.2082 12.8266 62.9099 12.562C62.6117 12.2974 62.4626 11.9248 62.4626 11.4404V7.38616H65.2398V4.84106H59.6593H59.663Z" fill="#999999"/>
<path d="M74.8019 6.31937C74.3474 5.81632 73.7991 5.41015 73.1657 5.09714C72.5316 4.78785 71.8273 4.63135 71.0521 4.63135C70.2769 4.63135 69.6091 4.77667 68.9608 5.06732C68.3119 5.35798 67.742 5.74552 67.2534 6.2374C66.7613 6.72927 66.3811 7.29938 66.1052 7.9552C65.8294 8.61108 65.6914 9.30417 65.6914 10.0345C65.6914 10.7649 65.8443 11.4841 66.1462 12.1474C66.4482 12.8106 66.8657 13.3845 67.3876 13.8652C67.9135 14.3496 68.528 14.7334 69.233 15.0129C69.9373 15.2961 70.6976 15.4377 71.5106 15.4377C72.2561 15.4377 72.957 15.3408 73.6127 15.147C74.2691 14.9533 74.8505 14.6775 75.3617 14.3198L74.4068 12.561C74.0084 12.7138 73.583 12.8367 73.1319 12.9336C72.6849 13.0305 72.1629 13.079 71.5701 13.079C70.9772 13.079 70.4221 12.9187 69.9116 12.5907C69.4004 12.2666 69.0054 11.8716 68.7299 11.4021H76.0619C76.174 10.9326 76.226 10.4891 76.226 10.0755C76.226 9.38615 76.1031 8.7117 75.8533 8.05581C75.6034 7.4 75.2529 6.82244 74.7985 6.31564L74.8019 6.31937ZM68.6286 9.18863C68.7967 8.59616 69.1026 8.11172 69.5497 7.73911C69.9974 7.3665 70.5004 7.18013 71.0521 7.18013C71.6038 7.18013 72.0731 7.3665 72.5019 7.73911C72.9307 8.11172 73.2251 8.59616 73.3933 9.18863H68.6286Z" fill="#999999"/>
<path d="M80.2749 8.05974C80.5018 7.79146 80.7665 7.5753 81.0724 7.41885C81.3742 7.25861 81.6984 7.18034 82.0454 7.18034C82.4439 7.18034 82.8092 7.25489 83.134 7.3965C83.4581 7.54181 83.82 7.79888 84.2225 8.17156L86.2091 6.64002C85.7135 6.01772 85.1057 5.52957 84.3866 5.17185C83.6668 4.81412 82.8875 4.63525 82.0454 4.63525C81.3 4.63525 80.6024 4.77686 79.9542 5.06006C79.3052 5.34326 78.7387 5.7308 78.2538 6.21894C77.7697 6.71082 77.3895 7.28096 77.1059 7.93677C76.823 8.59259 76.6812 9.29318 76.6812 10.0385C76.6812 10.7837 76.823 11.4843 77.1059 12.1401C77.3895 12.7959 77.7731 13.3697 78.2538 13.8579C78.7387 14.3498 79.3052 14.7336 79.9542 15.0168C80.6024 15.3 81.3 15.4416 82.0454 15.4416C82.8618 15.4416 83.6181 15.2702 84.3231 14.9237C85.0274 14.5771 85.6203 14.115 86.1051 13.5375L84.3454 11.7973C84.0544 12.155 83.7079 12.4344 83.2981 12.6357C82.8915 12.8369 82.4742 12.9375 82.0454 12.9375C81.6984 12.9375 81.3742 12.8667 81.0724 12.7288C80.7665 12.591 80.5018 12.4009 80.2749 12.1587C80.0473 11.9165 79.8684 11.6296 79.7381 11.2905C79.6071 10.9514 79.5402 10.575 79.5402 10.1614C79.5402 9.74776 79.6071 9.36023 79.7381 9.00254C79.8684 8.64479 80.0473 8.32802 80.2749 8.05974Z" fill="#999999"/>
<path d="M97.3328 7.85507C97.0904 7.19926 96.7548 6.62541 96.33 6.13726C95.9012 5.64911 95.3941 5.26157 94.8093 4.97837C94.2198 4.69518 93.5898 4.55357 92.9152 4.55357C92.3223 4.55357 91.7936 4.64673 91.3311 4.83305C90.8685 5.01936 90.4586 5.28393 90.0974 5.63048L90.0751 0H87.2153V15.114H90.0751V9.87479C90.0751 9.40528 90.1419 8.9991 90.2722 8.65256C90.4026 8.30601 90.5815 8.02281 90.8017 7.79173C91.0252 7.56444 91.2791 7.39306 91.5735 7.27381C91.8638 7.15827 92.1697 7.09864 92.4905 7.09864C92.8112 7.09864 93.1387 7.18433 93.4372 7.35578C93.7357 7.52716 93.9963 7.75446 94.2165 8.03766C94.44 8.32087 94.6115 8.64878 94.7384 9.02146C94.8647 9.39407 94.9248 9.77417 94.9248 10.1617C94.9248 10.5492 94.9248 11.0411 94.9133 11.6001C94.9059 12.159 94.9025 12.6993 94.9025 13.2248V15.1102H97.6981V9.95305C97.6981 9.20776 97.5786 8.50724 97.3369 7.85136L97.3328 7.85507Z" fill="#999999"/>
<path d="M56.7846 12.1631H53.7651V15.1814H56.7846V12.1631Z" fill="#999999"/>
<path d="M62.5217 1.08796H59.6587V4.84037C59.6587 4.84037 60.6876 4.70622 61.6941 3.74483C62.7006 2.78344 62.5217 1.08423 62.5217 1.08423V1.08796Z" fill="#999999"/>
<path d="M21.5571 22.2551V29H46.0758C48.1746 28.7615 48.9873 28.2361 49.9118 27.4163C51.7087 25.8214 51.8541 24.6252 51.8541 24.6252V29H76.1415V22.2551H21.5571Z" fill="#999999"/>
</g>
</svg>
