<svg width="201" height="29" viewBox="0 0 201 29" fill="none" xmlns="http://www.w3.org/2000/svg">
<g clip-path="url(#clip0_2496_1970)">
<path d="M136.331 6.58027C136.367 6.57373 136.402 6.5691 136.438 6.5664C146.614 5.81284 152.45 16.3994 146.201 24.5494C144.646 26.5767 141.345 28.1141 138.789 28.2989C138.688 28.3151 138.589 28.3292 138.487 28.3411C135.653 28.6745 132.319 27.7237 130.069 25.9507C127.91 24.2442 126.512 21.7549 126.183 19.0249C125.383 12.1713 129.589 7.35912 136.331 6.58027ZM137.999 22.882C144.715 21.712 143.656 11.4594 136.856 12.0403C129.852 12.9701 131.239 23.6645 137.999 22.882Z" fill="white"/>
<path d="M42.9062 6.67712C45.3799 6.40198 48.7427 6.85089 50.8572 8.35375C54.7291 11.0184 53.7825 15.6962 53.8685 19.7026C53.9137 21.8082 53.2094 23.7356 56.2281 23.1416L56.2296 27.4742C54.0861 28.3858 50.5361 28.6423 48.8697 26.7698C48.5309 26.389 48.3435 26.0148 48.1246 25.563C45.5225 28.4168 39.9467 29.2653 36.7193 27.104C34.6378 25.6211 33.8596 22.8504 34.4798 20.4755C35.9947 14.6735 43.3228 15.2032 47.6437 16.1838C47.6456 15.8211 47.658 15.4248 47.6263 15.0677C47.3059 11.4494 43.2623 11.3488 40.6306 12.478C39.7536 12.8543 39.2151 13.2503 38.4611 13.7902C37.5924 12.9871 35.8124 10.8687 34.9521 9.90318C37.0205 7.89237 40.1197 7.01318 42.9062 6.67712ZM41.2922 23.2044C42.6496 24.2135 43.2477 24.1617 44.9364 23.9937C47.4091 23.0438 47.7449 22.1547 47.7042 19.598C46.6298 19.389 44.795 19.0535 43.7208 19.1723C41.3243 19.4758 40.0829 20.8576 41.2922 23.2044Z" fill="white"/>
<path d="M161.138 6.58519C162.212 6.45479 164.581 6.75766 165.616 7.08735C168.616 8.04221 170.138 9.52585 171.59 12.1931C169.958 13.1388 168.084 13.997 166.397 14.9475C165.108 12.5464 163.189 11.5263 160.395 12.2061C156.257 13.2128 155.876 20.5645 159.488 22.3737C162.057 23.6608 165.073 22.7482 166.496 20.1074C167.2 20.5366 167.94 20.903 168.672 21.2788C169.624 21.7375 170.66 22.2999 171.605 22.7854C169.627 26.4744 166.705 28.0856 162.522 28.3711C159.554 28.5571 156.403 27.8304 154.118 25.8468C149.855 22.147 149.57 14.3099 153.223 10.1099C155.299 7.72275 158.06 6.79841 161.138 6.58519Z" fill="white"/>
<path d="M67.6961 6.58404C68.8774 6.47237 71.072 6.7436 72.1974 7.09698C75.1186 8.01423 76.7303 9.5693 78.1431 12.1876C76.4995 13.154 74.6157 13.986 72.9132 14.9743C71.9668 12.6882 69.2908 11.4125 67.0245 12.1711C61.1053 14.1525 63.0523 24.7959 70.0209 22.6952C71.4971 22.2502 72.2957 21.4229 73.0328 20.113C73.7636 20.5292 74.5015 20.9082 75.2478 21.2956C76.0272 21.6282 77.3684 22.3834 78.1628 22.7979C76.1673 26.4542 73.2793 28.0774 69.1155 28.3673C66.1425 28.5645 63.0113 27.8474 60.7089 25.8812C56.4133 22.2128 56.1174 14.3239 59.7626 10.1224C61.855 7.71068 64.5889 6.80873 67.6961 6.58404Z" fill="white"/>
<path d="M197.39 24.0577C198.046 23.9693 198.503 24.0255 199.149 24.1434C199.39 24.3215 199.664 24.5726 199.895 24.7729C200.292 25.8563 200.269 26.1868 199.891 27.2799C199.517 27.6302 199.251 27.8627 198.761 28.006C195.357 28.2917 195.239 24.7974 197.39 24.0577ZM196.704 24.7777C196.018 26.5263 196.376 27.8541 198.49 27.8067C199.077 27.5928 199.439 27.4127 199.718 26.8154C199.929 26.369 199.951 25.857 199.782 25.3935C199.433 24.4471 198.665 24.1918 197.735 24.2347C197.256 24.3973 197.123 24.4905 196.704 24.7777Z" fill="white"/>
<path d="M197.341 24.9805C199.132 24.9285 198.996 25.1156 198.608 26.3869C198.603 26.4021 198.755 26.864 198.78 26.9366L198.623 27.1268C198.405 26.7675 198.321 26.5189 197.89 26.4483C197.646 26.5377 197.567 26.7474 197.447 26.9755C197.3 26.8113 197.343 25.2955 197.341 24.9805ZM198.587 25.9988C198.554 25.6514 198.609 25.6492 198.412 25.4072C198.121 25.3469 197.999 25.3404 197.699 25.3355V25.8348C197.952 26.0723 198.158 25.9918 198.587 25.9988Z" fill="white"/>
<path d="M0 0H13.3572C16.2676 0.438859 18.8556 0.64177 20.8119 3.2559C22.5371 5.5612 22.6426 9.13203 20.7357 11.3647C19.9967 12.2258 19.3556 12.6516 18.4117 13.2256C20.1222 13.9374 21.7739 15.1624 22.395 16.9426C23.7994 20.9683 22.3757 25.4292 18.1644 27.0135C15.1171 28.1601 12.1737 27.9109 9.04312 27.9084L0 27.9123V0ZM6.61899 22.4168C8.64431 22.4354 13.7199 22.8695 15.0994 21.5203L15.1245 21.4955C15.7142 20.9121 15.9715 20.238 15.9608 19.4162C15.9216 16.4103 13.0948 16.3808 10.8942 16.3862L6.61453 16.4187L6.61899 22.4168ZM6.61943 11.2117C8.72978 11.2274 13.1304 11.6347 14.6033 10.3314C15.898 8.84397 15.5977 6.26212 13.7015 5.73934C11.822 5.22118 8.6105 5.42227 6.6137 5.45833L6.61943 11.2117Z" fill="white"/>
<path d="M102.513 0H115.665C119.048 0.648446 122.074 1.0645 124.009 4.44192C125.884 7.71289 125.488 12.4989 122.782 15.2044C121.913 16.0733 121.007 16.6291 119.94 17.2462C120.46 18.3337 121.448 19.9421 122.073 21.0247L126.009 27.8455C123.524 27.8918 120.896 27.8516 118.399 27.8539C118.117 27.1844 116.921 25.1568 116.489 24.4112C115.376 22.4905 114.267 20.3753 113.117 18.4952C111.76 18.4733 110.402 18.4742 109.044 18.4977L109.038 27.8519L102.514 27.8522C102.414 18.6407 102.511 9.22933 102.513 0ZM109.098 12.9174C111.68 12.936 115.339 13.4174 117.407 11.8178C118.981 9.91663 118.915 6.68884 116.263 5.8684C114.436 5.30325 111.121 5.55714 109.09 5.56955L109.098 12.9174Z" fill="white"/>
<path d="M173.074 0H179.359C179.462 5.04742 179.361 10.4 179.376 15.4811C179.946 14.7126 181.603 12.9484 182.323 12.1635C183.742 10.6176 185.314 8.73903 186.774 7.2736C188.969 7.22135 191.571 7.24304 193.764 7.29511C191.621 9.41687 188.873 12.6113 186.777 14.9034C188.73 18.0621 190.478 21.4339 192.397 24.6208C193.024 25.6636 193.675 26.8022 194.233 27.8803C192.272 27.9914 189.083 27.931 187.078 27.8909C186.154 26.082 184.996 24.2973 184.021 22.506C183.512 21.5702 182.932 20.5693 182.37 19.6707C181.701 20.3591 179.845 22.2227 179.368 22.9183L179.363 27.9061C177.261 27.9204 175.158 27.9153 173.057 27.891C172.929 20.5837 173.135 13.217 173.046 5.90403C173.023 3.96548 173.013 1.93615 173.074 0Z" fill="white"/>
<path d="M79.6968 0H85.9674L85.978 15.4698C88.2958 12.8629 90.9216 9.75573 93.3081 7.27261C95.5026 7.21834 98.2002 7.23849 100.39 7.29785C98.2657 9.42236 95.4614 12.6407 93.4127 14.9013C95.9194 19.0182 98.473 23.674 100.891 27.8788C99.0246 28.0006 95.6419 27.9091 93.7264 27.8991C92.2074 25.2542 90.4361 22.2987 89.0196 19.628C88.0036 20.6596 86.9889 21.7959 85.9732 22.8509L85.9726 27.9083C83.8789 27.9172 81.7851 27.9124 79.6914 27.8936L79.6968 0Z" fill="white"/>
<path d="M25.4636 0H31.8426L31.8371 27.8523L25.4714 27.8511C25.3776 24.9078 25.4608 21.431 25.4603 18.4487L25.4636 0Z" fill="white"/>
</g>
<defs>
<clipPath id="clip0_2496_1970">
<rect width="200.281" height="29" fill="white"/>
</clipPath>
</defs>
</svg>
