<svg width="109" height="29" viewBox="0 0 109 29" fill="none" xmlns="http://www.w3.org/2000/svg">
<path fill-rule="evenodd" clip-rule="evenodd" d="M22.4958 6.53466C23.6187 6.24419 24.7299 5.92714 25.8515 5.54258C25.444 5.02404 25.0025 4.53617 24.5298 4.08564C23.2222 3.82407 21.8013 3.92021 20.4392 4.18817C20.3573 4.19994 20.2967 4.24213 20.2542 4.3081C20.2051 4.37688 20.1913 4.45384 20.2097 4.53285C20.2205 4.57555 20.2215 4.61467 20.2123 4.66607C20.1806 4.77474 20.1049 4.85502 19.9897 4.88135C19.6874 4.94962 19.3812 5.02736 19.0817 5.10228C13.895 6.44773 8.98577 8.73949 4.65007 11.841C4.45081 11.9829 4.24489 12.1277 4.0487 12.2762C3.96428 12.3368 3.9208 12.4189 3.92515 12.5196C3.93257 12.627 3.93308 12.7375 3.94024 12.8451C3.9474 12.9525 4.00803 13.0369 4.0996 13.084C4.19117 13.1313 4.29222 13.1269 4.37944 13.073C4.65084 12.9155 4.91277 12.7544 5.1747 12.593C9.60914 9.95428 14.4465 7.91514 19.4173 6.65561C20.177 6.4756 20.9198 6.31067 21.6588 6.15547C21.7939 6.12044 21.9246 6.16647 22.0097 6.27181C22.0461 6.31911 22.0893 6.36361 22.1256 6.41091C22.2139 6.5229 22.3512 6.56585 22.4958 6.53466ZM25.7658 14.0523C26.7412 13.4227 27.7311 12.8265 28.7773 12.2691C28.8788 12.9203 28.9346 13.5759 28.9448 14.2353C28.2414 15.3629 27.2021 16.3364 26.0802 17.1561C26.0127 17.2011 25.9405 17.2167 25.8633 17.2029C25.7794 17.1919 25.7136 17.1494 25.6684 17.0819C25.6443 17.0451 25.6167 17.0175 25.5755 16.996C25.4717 16.9385 25.364 16.9457 25.2663 17.0119C25.0071 17.1796 24.7444 17.3571 24.4825 17.5184C19.9639 20.3993 14.9389 22.4251 9.70967 23.473C9.46999 23.5218 9.22366 23.5735 8.98398 23.6223C8.88217 23.643 8.78983 23.6121 8.71898 23.54C8.64531 23.4615 8.56473 23.3858 8.49106 23.307C8.42021 23.2352 8.39974 23.1334 8.42481 23.0276C8.45295 22.9286 8.52483 22.8578 8.62382 22.8307C8.92719 22.7463 9.22084 22.6581 9.51756 22.5765C14.4723 21.1344 19.2633 18.9886 23.575 16.2136C24.2249 15.781 24.8519 15.3504 25.4724 14.9226C25.587 14.8411 25.6425 14.7142 25.6239 14.5803C25.6139 14.5212 25.6108 14.4593 25.6011 14.4005C25.5793 14.2596 25.6415 14.13 25.7658 14.0523ZM17.8372 2.56863C19.196 2.42058 20.5397 2.31063 21.9381 2.09023C20.8149 1.41648 19.6089 0.897678 18.355 0.541498C16.9187 0.438711 15.3896 0.613348 13.8701 0.973362C13.7911 0.992027 13.7305 1.03422 13.6842 1.10965C13.6417 1.17536 13.6343 1.24977 13.653 1.32852C13.6617 1.34846 13.6665 1.37812 13.6686 1.40088C13.6711 1.53409 13.5803 1.65248 13.4453 1.68751C10.4978 2.45484 7.7068 3.8182 5.25911 5.62517C5.21537 5.65202 5.18417 5.68909 5.16524 5.7369C5.12482 5.82563 5.09106 5.91154 5.05729 5.9972C5.00844 6.12121 5.04041 6.24956 5.13991 6.33292C5.23942 6.41602 5.3755 6.42011 5.48651 6.34801C8.7067 4.18971 12.3661 2.67832 16.192 2.18509C16.2148 2.18304 16.2281 2.17742 16.2508 2.17537C16.467 2.14469 16.6632 2.17793 16.8627 2.27304C16.9829 2.33134 17.1031 2.38964 17.2264 2.45484C17.4221 2.55942 17.6183 2.59266 17.8372 2.56863ZM25.4875 20.1561C26.5225 19.2635 27.5224 18.3627 28.6343 17.4841C28.3614 18.7647 27.9211 20.0071 27.3236 21.16C26.4194 22.2802 25.2489 23.2789 23.9489 24.1442C23.8817 24.1894 23.8093 24.205 23.7225 24.1874C23.6453 24.1736 23.5862 24.128 23.5409 24.0608C23.5325 24.0409 23.5171 24.0237 23.5018 24.0066C23.4031 23.9074 23.2544 23.8928 23.1368 23.9677C20.5653 25.599 17.6643 26.7098 14.6759 27.2738C14.6235 27.2807 14.5749 27.2782 14.5273 27.2593C14.4347 27.2283 14.349 27.1946 14.263 27.1608C14.1418 27.1186 14.0671 27.001 14.074 26.8714C14.0809 26.742 14.1707 26.6397 14.2991 26.6075C18.0744 25.7256 21.6759 24.081 24.646 21.6205C24.6659 21.6118 24.6764 21.5993 24.6933 21.5839C24.8631 21.4471 24.9726 21.2809 25.0391 21.0702C25.0785 20.9424 25.1176 20.8148 25.1542 20.6803C25.2141 20.4724 25.3207 20.2998 25.4875 20.1561ZM11.8031 0.820717C13.0125 0.492664 14.3022 0.240297 15.7085 0.0559444C13.653 -0.125597 11.5348 0.131111 9.48789 0.878498C9.20677 0.97694 8.93128 1.08894 8.65861 1.20732C8.39258 1.3229 8.13602 1.4423 7.88535 1.575C7.86181 1.59316 7.84084 1.61797 7.82395 1.63331C7.79633 1.66118 7.79761 1.70004 7.81858 1.73046C7.83981 1.76089 7.87511 1.76933 7.90837 1.75476C8.55578 1.42594 9.22749 1.13394 9.91558 0.898193C10.0248 0.858562 10.1266 0.8381 10.2466 0.841169C10.6436 0.826851 11.0493 0.832222 11.4501 0.863415C11.5701 0.866484 11.6844 0.856514 11.8031 0.820717ZM22.6513 25.7594C23.7159 25.0992 24.7803 24.3283 25.874 23.4259C24.605 25.0526 22.9728 26.426 21.0298 27.4127C20.7661 27.551 20.4962 27.676 20.2235 27.7947C19.9575 27.9102 19.6953 28.0164 19.4303 28.1158C19.3978 28.114 19.3656 28.1122 19.3426 28.1143C19.3037 28.1156 19.2758 28.0879 19.2682 28.0519C19.2633 28.0225 19.2781 27.9841 19.3145 27.9765C19.9967 27.7274 20.6653 27.4288 21.3071 27.0867C21.4107 27.0337 21.4951 26.9734 21.5775 26.89C21.8558 26.6031 22.1284 26.3027 22.3819 25.9951C22.4587 25.8985 22.5439 25.822 22.6513 25.7594ZM4.46692 18.8363C4.45234 18.803 4.4352 18.7631 4.42062 18.7299C4.38584 18.6501 4.33033 18.5951 4.24745 18.568C4.17122 18.5379 4.09602 18.5468 4.01621 18.5816C3.65171 18.7795 3.29078 18.9679 2.92346 19.1594C2.78943 19.2333 2.73213 19.3926 2.79301 19.5322C2.79863 19.5455 2.8017 19.5522 2.80452 19.5588C2.80733 19.5655 2.81321 19.5785 2.81603 19.5852C2.87691 19.7248 3.03243 19.7915 3.17772 19.7442C3.56832 19.6061 3.95508 19.4775 4.34568 19.3395C4.42855 19.3113 4.48329 19.2558 4.51347 19.1794C4.55005 19.1004 4.54775 19.0224 4.51603 18.9493C4.49864 18.9094 4.48432 18.8761 4.46692 18.8363ZM2.39218 19.7378C2.38067 19.7112 2.36635 19.678 2.35177 19.6447C2.33744 19.6115 2.30291 19.587 2.26479 19.5721C2.22668 19.557 2.18755 19.5581 2.14764 19.5755C1.79644 19.7677 1.43858 19.9628 1.08712 20.1549C1.10452 20.1947 1.12472 20.2413 1.14212 20.2812C1.16232 20.3277 1.17972 20.3676 1.19711 20.4075C1.57722 20.2819 1.96398 20.1533 2.34435 20.0275C2.38425 20.0101 2.41444 19.9892 2.42953 19.9508C2.44462 19.9127 2.44999 19.8708 2.43285 19.8309C2.41827 19.7977 2.40676 19.7711 2.39218 19.7378ZM0.0342731 16.1709C0.359131 15.8636 0.718521 15.581 1.07407 15.308C1.11475 15.2745 1.14033 15.2238 1.13342 15.1714C1.12651 15.1193 1.11935 15.0668 1.11245 15.0147C1.10554 14.9623 1.06922 14.915 1.02138 14.896C0.967154 14.8802 0.908065 14.8902 0.870208 14.9303C0.562488 15.222 0.266793 15.5245 0 15.838C0.0102317 15.952 0.0173907 16.0597 0.0342731 16.1709ZM3.39668 23.9013C3.84023 23.8665 4.29503 23.8031 4.73448 23.7228C4.78666 23.7159 4.84115 23.7317 4.87465 23.7724C4.90816 23.8133 4.94167 23.8539 4.97518 23.8949C5.00869 23.9355 5.01867 23.9943 4.99974 24.0421C4.97723 24.0994 4.92709 24.1291 4.87465 24.136C4.44825 24.1554 4.02542 24.1654 3.61411 24.1465C3.54044 24.068 3.4637 23.9826 3.39668 23.9013ZM1.48667 14.4568C1.49076 14.5025 1.49844 14.5386 1.50253 14.5844C1.51148 14.6595 1.5565 14.7268 1.62634 14.7598C1.70256 14.7897 1.78058 14.7874 1.84504 14.7357C1.86499 14.727 1.88878 14.7089 1.90591 14.6935C2.2804 14.4279 2.66486 14.166 3.05187 13.9109C3.11915 13.8659 3.15879 13.7932 3.14703 13.7114C3.14268 13.6107 3.12887 13.5061 3.12452 13.4051C3.11915 13.3205 3.06748 13.256 2.9979 13.2231C2.92142 13.1931 2.83675 13.1982 2.77229 13.2499C2.3579 13.5882 1.95989 13.927 1.55804 14.2757C1.50688 14.3215 1.48053 14.3882 1.48667 14.4568ZM5.63846 24.0017C5.60776 23.9675 5.58678 23.9373 5.55609 23.903C5.50723 23.8453 5.48882 23.7665 5.51209 23.6931C5.54228 23.6167 5.60008 23.5678 5.67887 23.5494C5.70189 23.5474 5.72849 23.5359 5.75126 23.5338C6.20401 23.4477 6.65472 23.3387 7.10543 23.2298C7.18422 23.2111 7.26453 23.2319 7.3162 23.2963C7.38706 23.3681 7.45408 23.4497 7.52493 23.5215C7.58325 23.5832 7.59528 23.665 7.57174 23.7384C7.54463 23.8212 7.48017 23.8731 7.39831 23.8849C6.87112 23.9636 6.35161 24.0235 5.81981 24.0731C5.75126 24.0792 5.6845 24.0529 5.63846 24.0017ZM0.422827 10.7935C0.712385 10.4227 1.02368 10.066 1.35698 9.72365C1.37412 9.70831 1.38819 9.68632 1.39279 9.66075C1.40123 9.62547 1.40968 9.59018 1.41786 9.55489C1.43091 9.49404 1.402 9.42756 1.33908 9.3915C1.27897 9.36236 1.20658 9.37795 1.16795 9.43446C0.966386 9.67992 0.774542 9.92948 0.598556 10.1798C0.535886 10.3808 0.476032 10.5887 0.422827 10.7935ZM7.59323 27.2777C8.06184 27.3191 8.53506 27.3347 9.01314 27.3245C9.0359 27.3224 9.06174 27.327 9.08655 27.3477C9.1152 27.3592 9.14666 27.3771 9.17813 27.395C9.23159 27.427 9.26356 27.5001 9.24387 27.564C9.22417 27.628 9.16329 27.6701 9.09857 27.6666C8.78139 27.6464 8.46523 27.6101 8.16211 27.5679C7.97232 27.4766 7.77945 27.3784 7.59323 27.2777ZM2.08906 8.4255C2.08139 8.44468 2.07679 8.47025 2.06937 8.48943C2.03842 8.58173 2.08165 8.68145 2.16017 8.73438C2.2451 8.78449 2.34614 8.78015 2.42083 8.71597C2.84723 8.33294 3.28541 7.97676 3.7328 7.62417C3.76707 7.59348 3.79163 7.55897 3.80646 7.52087C3.8346 7.42166 3.86555 7.32935 3.90315 7.23398C3.9341 7.14142 3.89727 7.03889 3.81618 6.97931C3.731 6.9292 3.62357 6.93661 3.54862 7.00078C3.07106 7.42958 2.59272 7.87474 2.13895 8.34061C2.11158 8.36823 2.09725 8.39022 2.08906 8.4255ZM10.4622 27.6747C10.443 27.6671 10.4238 27.6597 10.4018 27.6453C10.3131 27.6049 10.2727 27.5119 10.2847 27.4119C10.3059 27.3158 10.3781 27.2449 10.4788 27.2406C11.047 27.1833 11.6064 27.1061 12.1696 27.0194C12.2152 27.0153 12.2571 27.0209 12.2983 27.0427C12.3871 27.0831 12.4758 27.1235 12.5712 27.1611C12.6628 27.2081 12.7099 27.2984 12.6981 27.3983C12.6797 27.5011 12.5981 27.5681 12.5001 27.5791C11.8634 27.6425 11.2114 27.6888 10.5584 27.696C10.5193 27.6973 10.4937 27.6926 10.4622 27.6747ZM3.81644 4.67144C4.61119 3.89925 5.48626 3.20274 6.42093 2.60672C6.48155 2.56453 6.52606 2.52158 6.58105 2.46609C6.66802 2.35717 6.76471 2.25183 6.85833 2.14009C5.75356 2.81767 4.76185 3.62822 3.90136 4.5395C3.87297 4.58348 3.84458 4.62746 3.81644 4.67144ZM14.3868 28.9721C15.4937 28.9177 16.6002 28.753 17.6766 28.4827C17.7459 28.4605 17.8078 28.4574 17.8887 28.4618C18.025 28.4659 18.1705 28.4735 18.3135 28.4748C17.0642 28.82 15.795 28.9923 14.5411 29C14.4897 28.9905 14.4383 28.9813 14.3868 28.9721ZM27.3876 7.965C26.2411 7.96526 25.0895 8.1895 23.9975 8.5692C23.9213 8.59426 23.8666 8.64974 23.8269 8.72236C23.7967 8.79855 23.7896 8.87296 23.8244 8.95274C23.8502 9.01257 23.8497 9.08391 23.8233 9.15065C23.7962 9.23349 23.7412 9.28897 23.6586 9.3171C22.8654 9.63825 22.0931 9.98957 21.3247 10.3314C15.939 12.7278 10.585 15.197 5.34557 17.8933C5.21154 17.9672 5.15449 18.1264 5.20847 18.2689C5.23737 18.3353 5.26909 18.4085 5.29799 18.475C5.32997 18.5481 5.35887 18.6146 5.39059 18.6877C5.45786 18.8242 5.61339 18.891 5.75612 18.837C11.302 16.8454 16.7601 14.6153 22.1862 12.3123C22.9605 11.9837 23.7509 11.6559 24.5268 11.2949C24.6636 11.2276 24.8391 11.2857 24.9094 11.4291C24.9383 11.4956 24.991 11.5437 25.0578 11.57C25.1435 11.6038 25.2281 11.5986 25.3051 11.5572C26.3278 11.018 27.2771 10.3289 28.0526 9.49378C27.9559 9.23553 27.8528 8.9801 27.74 8.72083C27.6272 8.46156 27.5106 8.21175 27.3876 7.965Z" fill="#999999"/>
<path d="M38.7495 11.0632C39.2401 10.7528 39.8177 10.5973 40.4822 10.5973C40.9887 10.5973 41.4737 10.7316 41.9382 11.0001C42.4022 11.2685 42.7662 11.6449 43.0299 12.1292L44.6599 11.3238C44.2695 10.5025 43.697 9.87093 42.943 9.42883C42.1886 8.98674 41.3842 8.76557 40.5298 8.76557C39.348 8.76557 38.3302 9.08416 37.4756 9.72109C36.621 10.358 36.1938 11.2396 36.1938 12.366V16.6611C36.1938 17.4297 36.4074 18.093 36.8346 18.6506C37.262 19.2088 37.7921 19.6166 38.4251 19.8746C39.058 20.1324 39.7438 20.2615 40.4822 20.2615C41.3471 20.2615 42.162 20.0377 42.9271 19.5903C43.6919 19.1428 44.2695 18.5033 44.6599 17.6716L43.0299 16.9137C42.7767 17.398 42.4181 17.7718 41.9538 18.0349C41.4895 18.298 40.9989 18.4297 40.4822 18.4297C39.8177 18.4297 39.2401 18.2745 38.7495 17.9638C38.2589 17.6534 38.0136 17.2193 38.0136 16.6611V12.366C38.0136 11.808 38.2589 11.3739 38.7495 11.0632Z" fill="#999999"/>
<path d="M46.8258 12.1134C45.8131 12.6504 45.3066 13.4714 45.3066 14.5767V20.1035H47.0473V14.6084C47.0473 14.0927 47.3108 13.724 47.8385 13.5031C48.3659 13.2819 48.8829 13.2451 49.3894 13.3924V11.8608C49.0939 11.7976 48.7826 11.7659 48.4557 11.7659C47.8014 11.7659 47.2583 11.882 46.8258 12.1134Z" fill="#999999"/>
<path d="M55.0688 18.3192C54.7309 18.5613 54.2934 18.6823 53.7553 18.6823C53.291 18.6823 52.885 18.5718 52.5369 18.3506C52.1888 18.1297 52.0041 17.8193 51.9829 17.4192V11.9238H50.2422V17.4033C50.2422 18.2773 50.5798 18.972 51.2551 19.4877C51.9299 20.0037 52.7213 20.2614 53.6286 20.2614C54.1668 20.2402 54.6677 20.1402 55.1319 19.9615C55.1741 20.4877 55.037 20.9088 54.7206 21.2246C54.4042 21.5404 54.0085 21.7035 53.5337 21.7143C53.1117 21.7245 52.7004 21.6457 52.2995 21.4772C51.8985 21.3087 51.5874 21.0771 51.3659 20.7825L50.3215 21.7774C50.6272 22.2512 51.0705 22.6169 51.6506 22.8749C52.2307 23.1326 52.848 23.2617 53.502 23.2617C54.4093 23.2617 55.1846 23.0037 55.8282 22.488C56.4718 21.972 56.7936 21.2246 56.7936 20.2456V11.9238H55.0688V18.3192Z" fill="#999999"/>
<path d="M62.7788 17.5139C62.7366 17.9246 62.5544 18.2299 62.2329 18.4298C61.9109 18.63 61.5129 18.7297 61.0381 18.7297C60.6268 18.7405 60.2098 18.6773 59.788 18.5403V13.5504C60.1781 13.3715 60.616 13.282 61.1013 13.282C61.5763 13.282 61.9743 13.3901 62.2961 13.6057C62.6179 13.8217 62.7788 14.1505 62.7788 14.5926V17.5139ZM63.5858 12.4686C62.9632 12.0109 62.1669 11.7767 61.1964 11.766C60.1203 11.7557 59.0705 11.9767 58.0474 12.4292V22.7722H59.788V19.9772C60.3047 20.1772 60.8166 20.2718 61.3231 20.2616C62.1879 20.2508 62.9371 20.0036 63.5699 19.5193C64.203 19.0353 64.5195 18.3667 64.5195 17.5139V14.6241C64.5195 13.6453 64.2082 12.9268 63.5858 12.4686Z" fill="#999999"/>
<path d="M68.14 18.5875C67.9605 18.535 67.8208 18.4611 67.7208 18.3663C67.6203 18.2717 67.5358 18.1374 67.4675 17.9638C67.3987 17.79 67.3647 17.577 67.3647 17.3241V13.5028H68.9312V11.9239H67.3647L67.2064 9.99724H65.6396V17.3399C65.6396 18.319 65.9062 19.0508 66.439 19.5351C66.9716 20.0193 67.6706 20.2615 68.5357 20.2615C68.7465 20.2615 68.9629 20.2456 69.1844 20.2139V18.6979C68.9522 18.6979 68.7652 18.6928 68.6227 18.6823C68.4802 18.6718 68.3193 18.6404 68.14 18.5875Z" fill="#999999"/>
<path d="M74.7751 17.3561C74.7751 17.7245 74.6222 18.0193 74.3162 18.2402C74.01 18.4614 73.6727 18.5719 73.3035 18.5719C72.9129 18.5719 72.5648 18.4614 72.2591 18.2402C71.953 18.0193 71.8 17.7245 71.8 17.3561V14.5925C71.8 14.2348 71.9504 13.9559 72.2512 13.7557C72.5518 13.556 72.9025 13.4557 73.3035 13.4557C73.6831 13.4557 74.0236 13.556 74.3242 13.7557C74.6247 13.9559 74.7751 14.2348 74.7751 14.5925V17.3561ZM75.5584 12.524C74.9199 12.0292 74.1684 11.7766 73.3035 11.7661C72.4277 11.7766 71.668 12.0292 71.0247 12.524C70.3811 13.019 70.0596 13.7084 70.0596 14.5925V17.4351C70.0596 18.33 70.3783 19.0219 71.0168 19.5115C71.655 20.0009 72.4172 20.251 73.3035 20.2615C74.1684 20.251 74.9199 20.0009 75.5584 19.5115C76.1966 19.0219 76.5158 18.33 76.5158 17.4351V14.5925C76.5158 13.7084 76.1966 13.019 75.5584 12.524Z" fill="#999999"/>
<path d="M84.8348 14.8058C84.592 14.5585 84.2782 14.3399 83.8932 14.1504C83.508 13.961 83.144 13.8188 82.8015 13.7239C82.4585 13.6293 82.06 13.5401 81.6067 13.4557C80.8575 13.3189 80.2773 13.1504 79.866 12.9502C79.4544 12.7505 79.2488 12.4503 79.2488 12.0502C79.2488 11.5979 79.4649 11.2425 79.8977 10.9845C80.33 10.7265 80.8416 10.5976 81.4325 10.5976C82.614 10.5976 83.4052 11.0397 83.8063 11.9239L85.4676 11.1819C84.7609 9.571 83.4156 8.76582 81.4325 8.76582C80.3881 8.76582 79.4728 9.04989 78.687 9.61855C77.901 10.187 77.4764 10.9556 77.4132 11.9239C77.4132 12.4503 77.5211 12.9137 77.7375 13.3136C77.9537 13.7137 78.2571 14.0349 78.6474 14.2768C79.0375 14.5191 79.4306 14.7086 79.8264 14.8452C80.2221 14.9822 80.6833 15.1034 81.211 15.2085C81.5696 15.2821 81.8412 15.3402 82.0259 15.3821C82.2104 15.4243 82.4375 15.4928 82.7063 15.5874C82.9754 15.682 83.1732 15.7848 83.2998 15.8953C83.4264 16.0057 83.5372 16.1558 83.6321 16.3453C83.7272 16.535 83.764 16.7508 83.7431 16.9927C83.7114 17.4563 83.474 17.8114 83.0309 18.0587C82.5877 18.3062 82.0599 18.4297 81.4483 18.4297C80.9104 18.4297 80.4119 18.2903 79.953 18.0114C79.4941 17.7324 79.1431 17.3297 78.9006 16.8032L77.2231 17.5611C77.603 18.4246 78.1752 19.0904 78.9403 19.5588C79.7051 20.0273 80.5306 20.2615 81.4166 20.2615C82.5245 20.2615 83.487 19.9907 84.3048 19.4484C85.122 18.9063 85.552 18.1351 85.5945 17.1349C85.626 16.6296 85.5679 16.1771 85.4203 15.7769C85.2725 15.377 85.0773 15.0533 84.8348 14.8058Z" fill="#999999"/>
<path d="M94.0691 16.2032L93.7686 18.193H93.721L92.3602 12.1293H90.6354C89.7807 15.6348 89.3321 17.6665 89.2901 18.2244H89.2426L88.9578 16.2349L87.85 11.9239H86.062L88.3723 20.1035H90.1921L91.4897 14.5453H91.5056L92.8032 20.1035H94.6229L96.9174 11.9239H95.1608L94.0691 16.2032Z" fill="#999999"/>
<path d="M98.654 8.76585C98.3478 8.76585 98.0895 8.87119 97.8787 9.08163C97.6674 9.29232 97.562 9.55543 97.562 9.87121C97.562 10.1765 97.6674 10.4373 97.8787 10.6529C98.0895 10.8687 98.3478 10.9766 98.654 10.9766C98.9704 10.9766 99.2341 10.8715 99.4452 10.6608C99.6562 10.4503 99.7618 10.187 99.7618 9.87121C99.7618 9.55543 99.6588 9.29232 99.4531 9.08163C99.2474 8.87119 98.9809 8.76585 98.654 8.76585Z" fill="#999999"/>
<path d="M97.8154 20.1035H99.5561V11.9239H97.8154V20.1035Z" fill="#999999"/>
<path d="M101.846 9.54728C101.198 10.0579 100.873 10.771 100.873 11.6869V20.1035H102.614V13.9135H104.196V12.208H102.614V11.7028C102.614 11.3553 102.759 11.0817 103.049 10.8817C103.339 10.6818 103.748 10.5816 104.275 10.5816V8.87609C103.305 8.81293 102.495 9.03666 101.846 9.54728Z" fill="#999999"/>
<path d="M108.14 18.6823C107.998 18.6718 107.837 18.6404 107.657 18.5875C107.478 18.535 107.338 18.4612 107.238 18.3665C107.138 18.2717 107.053 18.1374 106.985 17.9638C106.916 17.7902 106.882 17.577 106.882 17.3243V13.503H108.449V11.9239H106.882L106.724 9.99749H105.157V17.3402C105.157 18.3192 105.423 19.051 105.956 19.5351C106.489 20.0193 107.188 20.2615 108.053 20.2615C108.264 20.2615 108.48 20.2456 108.702 20.2142V18.6982C108.469 18.6982 108.283 18.6928 108.14 18.6823Z" fill="#999999"/>
</svg>
