<svg width="115" height="29" viewBox="0 0 115 29" fill="none" xmlns="http://www.w3.org/2000/svg">
<path d="M1.84393 0H27.1002L27.7148 0.111753L28.1618 0.33526L28.553 0.67052L28.8882 1.22929L29 1.6763L29.0559 5.30829H35.0347L36.1522 9.72254L37.4374 14.8073L38.4432 18.7746L39.7842 24.0829V24.3064H34.5318L33.973 21.7919V21.5684H29V27.3796L28.8324 27.9383L28.6089 28.2736L28.3854 28.553L27.8266 28.8882L27.4913 29H1.45279L0.894027 28.7765L0.391137 28.3295L0.111753 27.8825L0 27.4355V1.56455L0.223507 0.949904L0.726397 0.391137L1.22929 0.111753L1.84393 0ZM31.5703 11.0077L30.8439 12.9075L29.7264 15.9249L29.2235 17.2659V17.3776H33.0231L32.7996 16.2601L31.9056 12.1811L31.6262 11.0077H31.5703Z" fill="#999999"/>
<path d="M94.8229 5.30884H99.7401L100.411 6.64988L100.969 7.71154L102.031 9.77897L102.59 10.8406L103.372 12.3493L103.875 13.2992L104.098 13.0757L104.657 12.2375L105.942 10.3377L107.172 8.49381L107.73 7.71154L108.513 6.53813L109.351 5.30884H114.212V5.92348L113.318 17.4341L112.815 23.9158L112.759 24.3069H107.898L108.233 19.7809L108.624 14.752V14.2491L107.786 15.4784L107.06 16.5401L106.222 17.7693L105.495 18.831L104.601 20.172L104.154 20.7867L103.54 21.6807L103.484 21.7366H103.037L102.757 21.2896L102.087 20.0044L101.528 18.9427L100.69 17.3782L99.8518 15.7578L99.1813 14.5285L99.0695 14.305L99.0137 14.4167L98.4549 21.569L98.2314 24.3069H93.3701V23.5805L94.3759 10.6171L94.767 5.53234L94.8229 5.30884Z" fill="#999999"/>
<path d="M29.0562 5.30884H35.035L36.1525 9.7231L37.4377 14.8079L38.4435 18.7751L39.7845 24.0834V24.3069H34.5321L33.9733 21.7925V21.569H27.6034L27.4358 22.1277L26.6535 24.251L26.5976 24.3069H21.3452L21.5128 23.804L22.351 21.7366L23.4685 18.9986L24.3067 16.9312L26.3182 12.014L27.2681 9.66722L28.1622 7.48803L28.7768 5.97936L29.0562 5.30884ZM31.5706 11.0083L30.8443 12.9081L29.7267 15.9254L29.2238 17.2664V17.3782H33.0234L32.7999 16.2607L31.9059 12.1817L31.6265 11.0083H31.5706Z" fill="#999999"/>
<path d="M76.9428 5.30884H81.8041V6.03523L80.91 17.5458V18.2164L81.0777 18.8869L81.4129 19.3898L81.9717 19.725L82.5305 19.8927L82.9775 19.9485H83.7597L84.6538 19.7809L85.2125 19.5015L85.6596 19.1104L85.9948 18.4957L86.1624 17.6576L87.0565 6.14699L87.1123 5.47647L87.1682 5.30884H92.0295L91.9736 6.37049L91.0796 17.937L90.912 19.1663L90.6326 20.1162L90.1856 21.0661L89.6827 21.7925L89.1798 22.3512L88.6769 22.8541L87.8387 23.4688L86.7771 24.0275L85.436 24.4745L84.5979 24.6422L84.1509 24.698H81.8041L80.5748 24.4745L79.569 24.1393L78.5073 23.5805L77.7251 22.9659L77.2222 22.463L76.6634 21.6807L76.2723 20.8426L76.0488 20.0044L75.937 19.2221V18.1046L76.8869 5.92348L76.9428 5.30884Z" fill="#999999"/>
<path d="M50.7359 4.86108H51.6858L52.8033 4.97284L54.2003 5.3081L55.2619 5.75511L56.2118 6.258L56.9941 6.81677L57.6646 7.43141L58.1116 7.87843L58.7263 8.71658L59.0615 9.27534V9.44297L54.8149 11.7898H54.6473L54.1444 11.0075L53.5856 10.5046L52.8033 10.0576L51.9093 9.77823L51.5741 9.72236H50.0095L49.0037 9.94586L48.3332 10.2252L47.7186 10.5605L47.1598 11.0075L46.601 11.5663L46.0981 12.3486L45.8188 12.9073L45.5394 13.8014L45.4276 14.4719L45.3717 15.4777L45.4835 16.4834L45.707 17.2657L46.154 18.1039L46.6569 18.7185L47.2157 19.1655L48.1097 19.6125L48.892 19.836L49.2272 19.8919H50.7359L51.5182 19.7243L52.3004 19.4449L52.971 19.0538L53.5297 18.6067L53.9767 18.1039L54.2003 17.7686L54.4796 17.8804L57.6087 19.7802L58.2234 20.1713L58.1116 20.4507L57.5529 21.1771L56.8265 21.9594L56.2118 22.4622L55.5413 22.9651L54.7031 23.468L53.5297 24.0268L52.524 24.362L51.5741 24.5856L50.7918 24.6973H48.445L47.3833 24.5297L46.154 24.1944L45.1482 23.7474L44.366 23.3004L43.6396 22.7416L42.969 22.127L42.3544 21.4565L41.7398 20.5624L41.1251 19.389L40.7898 18.3832L40.5663 17.3216L40.4546 16.0364V15.4218L40.5663 14.0249L40.8457 12.6279L41.2369 11.4545L41.7398 10.3929L42.2985 9.49885L42.8573 8.77245L43.4719 8.10193L44.1983 7.37554L45.1482 6.64914L45.9864 6.14625L47.1598 5.58748L48.1656 5.25222L49.4507 4.97284L50.7359 4.86108Z" fill="#999999"/>
<path d="M60.5701 5.30884H74.8187V6.09111L74.5393 9.7231L74.4834 10.0025H69.7898L69.6221 12.4611L68.7281 24.0275L68.6722 24.3069H63.811V23.7481L64.5374 14.3609L64.8726 10.0584L60.2349 10.0025V9.27608L60.5142 5.6441L60.5701 5.30884Z" fill="#999999"/>
<path d="M7.59919 9.9458H12.9634L13.0192 10.1693L12.7957 12.9073H20.2273L20.0597 13.466L18.9422 16.7069L18.4393 18.1038L18.3834 18.1597L10.3371 18.2155L12.2928 19.1655L12.237 20.283L11.8458 25.3678L11.7899 25.4236H6.42578V24.6972L7.54332 10.1693L7.59919 9.9458Z" fill="#FEFEFE"/>
<path d="M4.74972 4.02295H24.6418L24.6977 4.1347L23.189 8.71659L23.0214 9.21948L22.9655 9.27536H7.48768L6.92892 8.26958L5.97901 6.48152L5.30849 5.25224L4.69385 4.1347L4.74972 4.02295Z" fill="#FEFEFE"/>
</svg>
