<svg width="120" height="29" viewBox="0 0 120 29" fill="none" xmlns="http://www.w3.org/2000/svg">
<path d="M47.4979 0.419434H44.8096V21.7786H47.4979V0.419434Z" fill="#999999"/>
<path d="M77.7437 11.923V11.8651C80.1044 11.2675 81.5641 9.56631 81.5641 6.48677C81.5641 2.69397 78.7265 0.424072 74.5158 0.424072H67.1399H65.8535H52.6578L48.5049 21.7833H51.1932L53.0769 12.135H62.6064L63.0833 9.74463H53.5587L54.9028 2.81445H65.8583V21.7833H68.5466V13.1471H74.67C80.0755 13.1471 78.0424 20.8869 78.9722 21.7785H81.8677V21.6001C80.7596 21.2435 82.494 12.8483 77.7437 11.923ZM73.8895 10.7567H68.5418V2.80963H73.8895C76.1008 2.80963 78.8758 3.07951 78.8758 6.78075C78.8758 10.482 76.1008 10.7567 73.8895 10.7567Z" fill="#999999"/>
<path d="M85.9534 11.9231H96.9138V9.53276H85.9534V2.80981H98.3494V0.419434H83.2651V21.7786H98.7059V19.3931H85.9534V11.9231Z" fill="#999999"/>
<path d="M120 11.0844C120 4.66028 115.818 0 109.545 0C103.273 0 99.0908 4.66028 99.0908 11.0844C99.0908 17.5086 103.273 22.1978 109.545 22.1978C111.935 22.1978 114.055 21.5086 115.726 20.3134L118.265 22.8532L119.966 21.152L117.456 18.6411C119.07 16.7037 120 14.1013 120 11.0844ZM115.669 16.8531L112.711 13.8941L111.01 15.5953L113.968 18.5544C112.802 19.3303 111.337 19.8074 109.545 19.8074C104.169 19.8074 101.779 15.6869 101.779 11.0844C101.779 6.48198 104.169 2.39038 109.545 2.39038C114.922 2.39038 117.311 6.48198 117.311 11.0844C117.311 13.2387 116.772 15.2965 115.669 16.8531Z" fill="#999999"/>
<path d="M21.545 0.419434L14.4292 7.53756V14.6557H21.545L28.6608 7.53756H35.7766V0.419434H28.6608H21.545Z" fill="#999999"/>
<path d="M14.4292 28.8918H21.545L28.6608 21.7736H35.7766V14.6555H28.6608H21.545L14.4292 21.7736V28.8918Z" fill="#999999"/>
<path d="M0 14.6555V28.8918H7.31331L14.4291 21.7736V14.6555H0Z" fill="#999999"/>
<path d="M0 0.419434V7.53756H14.4291L7.31331 0.419434H0Z" fill="#999999"/>
</svg>
