<svg width="55" height="30" viewBox="0 0 55 30" fill="none" xmlns="http://www.w3.org/2000/svg">
<path d="M17.9981 18.2214H10.9692V19.3827H17.9981V18.2214ZM17.9981 22.7893H10.9692V23.9505H17.9981V22.7893ZM17.9981 27.3571H10.9692V28.5184H17.9981V27.3571Z" fill="#999999"/>
<path d="M8.07224 29.0458H5.79145L4.82249 19.1475H4.64361L3.67464 29.0458H1.39385L0.335449 18.6108H1.46839L2.46717 28.5091H2.64605L3.5852 18.6108H5.8809L6.82004 28.5091H6.99893L7.99771 18.6108H9.13065L8.07224 29.0458Z" fill="#999999"/>
<path d="M26.1189 26.452H21.6468L20.8865 29.0458H19.5449L22.7052 18.6108H25.0605L28.2208 29.0458H26.8792L26.1189 26.452ZM23.7934 19.1475L21.9897 25.2892H25.7761L23.9723 19.1475H23.7934Z" fill="#999999"/>
<path d="M29.7459 18.6108H30.9981V27.883H36.4541V29.0458H29.7459V18.6108Z" fill="#999999"/>
<path d="M38.4711 18.6108H45.8054V19.7736H42.7644V29.0458H41.5122V19.7736H38.4711V18.6108Z" fill="#999999"/>
<path d="M47.7926 18.6108H49.0448V23.232H53.4871V18.6108H54.7393V29.0458H53.4871V24.3948H49.0448V29.0458H47.7926V18.6108Z" fill="#999999"/>
<path d="M13.4786 9.59549V7.88716L16.8973 5.73917V5.56129H10.959V4.41345H17.9776V6.29966L14.5589 8.44765V8.62553H15.1572C15.5572 8.62553 15.9435 8.6893 16.3127 8.81684C16.6819 8.94438 17.0101 9.13233 17.2939 9.37733C17.5776 9.62234 17.8101 9.9244 17.9845 10.2835C18.1588 10.6426 18.2477 11.0555 18.2477 11.5287V11.7938C18.2477 12.2368 18.1588 12.6463 17.9776 13.0289C17.7964 13.4115 17.5469 13.7438 17.2289 14.0224C16.9076 14.3009 16.5315 14.5224 16.0973 14.6835C15.6632 14.8446 15.1914 14.9252 14.6786 14.9252C14.0871 14.9252 13.5572 14.8379 13.0889 14.6601C12.6205 14.4822 12.2205 14.2405 11.8889 13.9317C11.5573 13.623 11.3077 13.2605 11.1299 12.841C10.9556 12.4248 10.8667 11.9784 10.8667 11.5085V10.7131H12.1248V11.4213C12.1248 11.7938 12.1863 12.1261 12.3128 12.4147C12.4359 12.7034 12.6137 12.9484 12.8393 13.1497C13.0649 13.3511 13.3316 13.5055 13.6427 13.6129C13.9538 13.7203 14.2888 13.774 14.6478 13.774C14.9794 13.774 15.2871 13.7203 15.5709 13.6129C15.8546 13.5055 16.1042 13.3545 16.3127 13.1632C16.5213 12.9719 16.6888 12.747 16.8084 12.4852C16.9281 12.2268 16.9896 11.9482 16.9896 11.6529V11.5656C16.9896 10.9481 16.7879 10.4648 16.3879 10.1157C15.9879 9.76665 15.4888 9.59213 14.8871 9.59213H13.4786V9.59549ZM17.9981 0H10.9693V1.16126H17.9981V0Z" fill="#999999"/>
<path d="M2.4158 10.4781V14.717H1.1543V4.41333H4.90463C5.44478 4.41333 5.91315 4.49052 6.31314 4.64155C6.71313 4.79259 7.04474 4.99732 7.3114 5.25239C7.57806 5.50746 7.77635 5.80617 7.9131 6.14179C8.04643 6.48077 8.1148 6.83653 8.1148 7.20908V7.6521C8.1148 8.02464 8.04643 8.38376 7.9131 8.7261C7.77635 9.06843 7.57464 9.37049 7.30457 9.63228C7.03449 9.89407 6.69945 10.0988 6.29946 10.2498C5.89947 10.4009 5.43453 10.4781 4.90463 10.4781H2.4158ZM2.4158 9.33022H4.7542C6.15246 9.33022 6.8533 8.74288 6.8533 7.56484V7.2997C6.8533 6.77948 6.68236 6.35995 6.33707 6.04111C5.99178 5.72226 5.4653 5.56116 4.7542 5.56116H2.4158V9.33022Z" fill="#999999"/>
</svg>
