<svg width="142" height="29" viewBox="0 0 142 29" fill="none" xmlns="http://www.w3.org/2000/svg">
<g clip-path="url(#clip0_2495_2056)">
<path d="M111.077 9.65228C112.401 9.6487 113.725 9.65566 115.049 9.67322C116.087 9.68507 117.463 9.60489 118.436 9.91114C121.081 10.744 121.23 12.8152 118.776 14.0971C120.296 14.7603 121.561 15.7585 120.796 17.594C119.287 19.7593 116.619 19.2897 114.289 19.3199C113.244 19.3334 112.15 19.2939 111.107 19.2478C111.089 15.9784 111.175 12.9816 111.077 9.65228ZM114.12 17.8959C115.057 17.8932 116.903 18.0323 117.649 17.3112C118.152 16.8249 118.062 15.9036 117.433 15.4796C116.475 14.9926 115.526 15.0855 114.452 15.0781C114.678 14.4636 114.864 13.9482 115.146 13.3549C115.767 13.3112 118.464 13.2779 117.174 11.4771C116.823 10.9874 114.877 11.0567 114.178 11.08C114.055 12.9268 114.058 16.0095 114.12 17.8959Z" fill="#999999"/>
<path d="M36.5469 9.65137L40.3687 9.66542C42.3174 9.67892 44.0626 9.53323 45.2337 11.416C45.3687 12.9137 44.844 13.3667 43.6426 14.0968C45.1455 14.8498 46.2284 15.8001 45.4717 17.647C44.7857 18.9869 43.0721 19.3001 41.7188 19.3124C39.9997 19.328 38.2887 19.2999 36.57 19.2683C36.5742 15.9659 36.6661 13.0088 36.5469 9.65137ZM39.3817 17.9063C40.5469 17.88 43.0253 18.0917 42.9119 16.3824C42.8882 16.0236 42.7884 15.8199 42.5383 15.5661C41.5732 14.9777 40.7861 15.0859 39.664 15.0803C39.8511 14.4955 40.0636 13.9193 40.3007 13.353C41.0821 13.2983 42.4944 13.3015 42.4335 12.1921C42.3576 10.809 40.3506 11.0649 39.4002 11.0777C39.3684 12.9875 39.2371 16.096 39.3817 17.9063Z" fill="#999999"/>
<path d="M94.5498 9.65432C97.1818 9.63834 105.505 8.86849 103.785 13.6102C103.486 14.4331 102.679 14.8319 101.925 15.1317C102.495 16.011 104.312 18.4851 105.002 19.3197C103.965 19.3708 102.638 19.3338 101.58 19.3346C101.042 18.6965 99.7801 16.6576 99.2905 15.8776C98.8959 15.2451 98.4854 14.737 98.0998 14.0607C99.0336 14.0327 100.095 14.0287 100.811 13.3303C101.279 12.8901 101.259 12.2058 100.774 11.7799C99.9447 11.0505 98.7361 11.1348 97.7107 11.1723C97.5771 13.86 97.648 16.6703 97.7245 19.3575C96.708 19.3269 95.5752 19.3522 94.5498 19.3529C94.7908 16.6313 94.764 12.347 94.5498 9.65432Z" fill="#999999"/>
<path d="M73.9097 9.65006C75.0404 9.64868 76.1712 9.65646 77.3013 9.67341C79.0917 9.69773 81.1777 9.55858 82.7058 10.6974C83.7374 11.4667 83.9481 13.0654 83.1362 14.0751C82.2471 15.1811 80.6178 15.3417 79.2901 15.4812L77.0127 15.5577C77.0616 16.8255 77.1374 18.092 77.2407 19.3563C76.1643 19.3297 75.0026 19.3522 73.9193 19.353C74.0233 18.3067 74.0322 16.433 74.0412 15.375C74.0557 13.5557 74.0419 11.46 73.9097 9.65006ZM77.043 14.0328C78.0911 14.006 79.2012 14.0536 80.1068 13.4408C81.8753 11.7577 79.0924 11.1464 77.8357 11.1405C77.5767 11.1404 77.3178 11.1444 77.0589 11.1523L77.043 14.0328Z" fill="#999999"/>
<path d="M59.4141 9.6571C61.9349 9.65055 65.9927 9.26212 68.1416 10.6935C68.5859 10.9895 69.0565 11.7275 69.0717 12.2674C69.1433 14.8471 66.9068 15.2489 64.8876 15.4722C64.0964 15.5268 63.2534 15.5437 62.4569 15.5717C62.4783 16.8011 62.5947 18.1232 62.6847 19.3552C61.6235 19.3338 60.4869 19.3518 59.4202 19.3506C59.444 15.9525 59.4924 13.0998 59.4141 9.6571ZM62.5222 14.013C63.3129 14.0037 64.7801 14.0221 65.4398 13.5269C67.6725 11.4212 63.7922 11.1183 62.5161 11.118C62.511 12.063 62.4887 13.0739 62.5222 14.013Z" fill="#999999"/>
<path d="M54.1402 9.65881L56.7547 9.65137C56.5064 12.8819 56.5074 16.1268 56.7578 19.3573L55.9047 19.3491L54.6795 19.3525C54.2494 18.9197 53.5418 17.7507 53.1761 17.2209C52.2404 15.8655 51.3037 14.5101 50.4164 13.1227C50.4154 14.7651 50.3594 17.7778 50.5291 19.3528L47.9391 19.352C47.966 17.5472 48.0793 15.7293 48.0703 13.9198C48.0632 12.499 47.9918 11.0766 47.9307 9.65708C48.8617 9.64909 49.7928 9.65281 50.7238 9.66817C50.9903 9.98752 51.6396 11.0215 51.9055 11.4142L54.3407 14.9661C54.2586 13.1976 54.1918 11.4284 54.1402 9.65881Z" fill="#999999"/>
<path d="M87.1321 9.65561C87.8531 9.64707 88.5851 9.67552 89.3062 9.69584L92.1888 15.8641C92.6922 16.9234 93.3837 18.2407 93.7962 19.3136C92.9677 19.3696 91.5002 19.341 90.6614 19.3211C90.3529 18.7011 90.1587 17.8938 89.7868 17.2922C89.6973 17.1476 89.5864 17.1734 89.404 17.1531C88.318 17.1453 87.232 17.1478 86.146 17.1608C85.8698 17.8928 85.6908 18.6363 85.396 19.3587L82.6118 19.3327C84.1675 16.3542 85.7541 12.7216 87.1321 9.65561ZM86.8091 15.5624L88.0728 15.5649C88.3854 15.5565 88.8221 15.5558 89.1237 15.5256C88.9371 15.1343 88.1093 13.2601 87.8931 13.1165C87.5405 14.0636 87.285 14.6831 86.8091 15.5624Z" fill="#999999"/>
<path d="M125.545 9.65213C126.271 9.6513 126.996 9.66838 127.721 9.70324C128.24 11.0168 128.87 12.1803 129.464 13.4505C130.382 15.4127 131.291 17.3382 132.178 19.3141C131.227 19.3646 130.049 19.3353 129.082 19.3369C128.775 18.7106 128.553 17.8664 128.179 17.2645C128.103 17.142 127.985 17.1648 127.831 17.1525L124.525 17.1504C124.277 17.7794 123.972 18.71 123.82 19.3575C122.887 19.3558 121.955 19.3432 121.023 19.3197C121.489 18.3987 121.902 17.4333 122.349 16.4993C123.452 14.2352 124.519 11.9524 125.545 9.65213ZM125.202 15.5626L126.654 15.564L127.51 15.5279C127.323 15.1652 126.462 13.2382 126.29 13.1347C125.967 13.8994 125.589 14.842 125.202 15.5626Z" fill="#999999"/>
<path d="M105.75 9.65872L109.109 9.65576C108.774 13.0625 108.863 15.9373 109.093 19.3399C108.661 19.4005 106.311 19.3356 105.756 19.3281C105.977 16.9616 105.998 12.0024 105.75 9.65872Z" fill="#999999"/>
<path d="M0 0H28.9269L28.9349 18.46C28.935 21.9116 28.988 25.5055 28.9316 28.9468C25.4783 28.8511 21.7128 28.9253 18.241 28.9256L0 28.9289V0Z" fill="#999999"/>
<path d="M1.3052 3.4968C1.27993 2.72831 1.45093 1.26913 2.13517 0.815569C2.53547 0.740982 2.94113 0.698804 3.34821 0.689457C7.30983 0.580965 11.7823 0.685563 15.7836 0.683787L23.0513 0.681776C24.3511 0.681731 25.6515 0.672403 26.951 0.69348C27.6313 0.704515 27.9954 0.914197 28.2677 1.54819C28.3605 1.99683 28.3181 4.69341 28.3168 5.28991L28.2835 14.3769L28.2911 23.1265C28.2879 24.3017 28.339 26.3664 28.2133 27.4737C27.9928 27.7993 27.8931 27.9196 27.5478 28.1438C26.6704 28.2792 23.758 28.2177 22.7202 28.2173L13.1142 28.2131L5.91309 28.2174C5.06854 28.2179 2.94437 28.2675 2.25178 28.145C1.60544 27.6785 1.55599 27.4228 1.44057 26.6045C0.923742 22.94 0.692508 19.1376 0.65202 15.4385C0.646048 14.8929 0.597047 13.0679 0.677726 12.6436C0.682607 12.1728 0.667772 11.3009 0.739928 10.8667C0.719916 9.94631 0.855125 8.51008 0.923618 7.5537C1.01301 6.30543 1.08583 4.69651 1.3052 3.4968Z" fill="#999999"/>
<path d="M1.30506 3.4968C1.27979 2.72831 1.45079 1.26913 2.13503 0.815569C2.53533 0.740982 2.94099 0.698804 3.34807 0.689457C7.3097 0.580965 11.7822 0.685563 15.7835 0.683787L23.0512 0.681776C24.3509 0.681731 25.6514 0.672403 26.9508 0.69348C27.6312 0.704515 27.9953 0.914197 28.2676 1.54819C28.2493 2.39205 28.3 3.6578 28.2375 4.44977C28.2942 5.40632 28.2607 6.79324 28.2507 7.76951C28.2399 8.81524 28.2792 10.0958 28.234 11.113L28.1469 10.7356C27.5271 10.6798 24.9439 10.6281 24.2548 10.8303C24.2547 10.8303 24.1417 10.9543 24.1272 10.9703C23.939 11.6362 23.7678 12.2867 23.5092 12.9295C23.4949 12.283 23.4564 11.4832 23.3602 10.8458L23.1609 10.5977C20.9424 10.5771 18.7237 10.5713 16.5051 10.5804C15.8805 10.5841 13.348 10.5083 13.0089 10.8708C12.4418 10.7246 12.1021 10.6438 11.5185 10.5658C11.7361 10.0083 11.9657 9.51317 12.2789 9.00122C11.2147 9.31988 10.4925 9.71796 9.5697 10.3431C8.49651 10.3494 6.12181 10.336 5.23451 10.9193L5.17249 10.8786L5.15941 10.7817L5.38364 10.66C4.81031 10.528 1.08273 10.4068 0.838792 10.5517L0.815275 10.8825L0.739792 10.8667C0.71978 9.94631 0.854989 8.51008 0.923482 7.5537C1.01288 6.30543 1.08569 4.69651 1.30506 3.4968Z" fill="#999999"/>
<path d="M1.3051 3.4968C1.27982 2.72831 1.45083 1.26913 2.13507 0.815569C2.53537 0.740982 2.94103 0.698804 3.34811 0.689457C7.30973 0.580965 11.7822 0.685563 15.7835 0.683787L23.0512 0.681776C24.3509 0.681731 25.6514 0.672403 26.9509 0.69348C27.6312 0.704515 27.9953 0.914197 28.2676 1.54819C28.2493 2.39205 28.3001 3.6578 28.2375 4.44977C28.142 4.16482 28.165 3.78491 28.1657 3.4782C24.953 3.52738 21.6237 3.2753 18.3948 3.39322C17.8295 3.41387 17.2964 3.42024 16.7301 3.40374C16.553 3.25459 3.29695 3.26704 2.12643 3.29674C1.46566 3.31351 1.40702 3.40909 1.34005 3.98425L1.3051 3.4968Z" fill="#999999"/>
<path d="M16.7305 3.4036C17.2967 3.42011 17.8299 3.41373 18.3951 3.39308C21.6241 3.27516 24.9534 3.52724 28.1661 3.47807C28.1653 3.78478 28.1424 4.16468 28.2379 4.44963C28.2946 5.40619 28.2611 6.7931 28.2511 7.76938C28.2403 8.8151 28.2797 10.0956 28.2344 11.1128L28.1473 10.7355C27.5275 10.6796 24.9443 10.628 24.2553 10.8302C24.2551 10.8302 24.1421 10.9542 24.1276 10.9701C24.4666 9.32842 24.5961 8.37018 24.5805 6.69958C25.1741 6.29276 25.47 5.82231 25.8452 5.22217C25.1316 5.21819 24.2659 5.35986 23.5624 5.48878C22.5393 4.71332 17.9813 3.34785 16.7564 3.54729L16.7355 3.5296L16.7305 3.4036Z" fill="#999999"/>
<path d="M16.7567 3.54725C17.9817 3.34781 22.5396 4.71328 23.5628 5.48875C24.2662 5.35982 25.1319 5.21815 25.8456 5.22213C25.4703 5.82227 25.1745 6.29272 24.5809 6.69954C24.5965 8.37014 24.467 9.32838 24.1279 10.9701C23.9397 11.6361 23.7686 12.2865 23.51 12.9293C23.4957 12.2829 23.4571 11.483 23.3609 10.8456C23.2231 9.59331 23.1644 9.0897 22.6682 7.92936C22.6001 7.95629 22.5354 7.98798 22.4722 8.02497C21.1734 8.78517 19.808 9.41139 18.4781 10.1137C19.2421 9.20728 19.9126 8.40851 20.575 7.42692C18.574 7.42974 16.4323 7.74082 14.4688 8.09495C16.3838 7.09628 18.7171 6.46878 20.8278 6.01888C19.9394 5.24946 17.846 4.149 16.7567 3.54725Z" fill="#FEFEFE"/>
<path d="M13.0091 10.8703C13.3481 10.5078 15.8807 10.5836 16.5053 10.5799C18.7238 10.5708 20.9425 10.5766 23.161 10.5972L23.3603 10.8453C23.4565 11.4827 23.495 12.2826 23.5094 12.929C23.768 12.2862 23.9391 11.6357 24.1273 10.9698C24.1418 10.9539 24.2548 10.8298 24.255 10.8298C24.944 10.6276 27.5272 10.6793 28.147 10.7352L28.2341 11.1125C28.2342 11.4383 28.2611 12.4342 28.1776 12.6894C28.1391 12.5205 28.1378 12.4404 28.133 12.2723C27.3836 12.388 24.931 12.289 23.9084 12.3317C23.7923 12.559 23.7167 12.7902 23.5163 12.9082C23.3716 12.7997 23.3636 12.5978 23.3328 12.3858C23.3219 12.3069 23.3128 12.2279 23.3057 12.1486C22.8952 12.4302 20.0152 12.2143 19.3068 12.2362C18.1697 12.2713 16.9296 12.2305 15.7791 12.2963C14.4333 12.2664 12.9812 11.8745 11.5628 12.1255C10.9155 12.24 11.1516 12.2901 10.7251 12.5557C10.754 12.4522 10.8244 12.2531 10.9125 12.2081C11.9996 11.6532 15.1386 12.1028 16.1952 12.2367C14.8934 11.4847 14.4098 11.272 13.0091 10.8703Z" fill="#999999"/>
<path d="M9.57028 10.3429C10.4931 9.71771 11.2153 9.31963 12.2795 9.00098C11.9663 9.51292 11.7366 10.0081 11.5191 10.5655C12.1026 10.6436 12.4424 10.7244 13.0095 10.8705C14.4103 11.2722 14.8939 11.4849 16.1957 12.237C15.1391 12.103 12 11.6535 10.9129 12.2083C10.8249 12.2533 10.7544 12.4525 10.7256 12.556C10.3586 13.6173 10.0473 14.6758 9.84966 15.7835C9.18243 14.5686 9.23057 14.0452 8.82991 12.8715C7.72167 13.429 5.97229 15.0891 4.96143 15.9591C5.54012 14.9248 6.17329 13.9219 6.85825 12.9546C6.87253 12.9468 7.81843 11.7487 7.92207 11.6203C6.90865 11.0556 6.378 11.0437 5.23509 10.919C6.12239 10.3357 8.49709 10.3492 9.57028 10.3429Z" fill="#FEFEFE"/>
<path d="M0.739937 10.8668L0.81542 10.8826L0.838937 10.5518C1.08288 10.4069 4.81045 10.5281 5.38378 10.6601L5.15955 10.7818L5.17263 10.8788L5.23465 10.9194C6.37756 11.044 6.90822 11.0559 7.92164 11.6206C7.81799 11.7491 6.87209 12.9471 6.85781 12.955C6.82047 12.7464 6.99692 12.5484 7.11929 12.3709C6.49237 12.1125 1.47804 12.0842 0.800394 12.2444L0.677734 12.6437C0.682616 12.173 0.667781 11.301 0.739937 10.8668Z" fill="#999999"/>
<path d="M4.71851 17.2107C4.80264 17.2935 4.84264 17.4554 4.8663 17.5683C5.08164 18.5957 5.37767 19.4522 5.91027 20.3609L7.99966 20.0375C7.62834 20.606 7.30619 21.205 7.03686 21.8283C7.84609 22.5671 8.60078 22.996 9.56578 23.4635L7.4831 23.1941C7.23857 23.1362 6.87446 23.0103 6.82959 23.3621C6.77577 23.7842 6.90581 24.4271 6.95973 24.8628C6.13773 24.1312 5.74533 23.4082 5.2176 22.4662C4.49454 22.0778 3.78117 21.6717 3.07812 21.2481C3.6622 20.9985 4.03795 20.8619 4.63839 20.6681C4.54179 19.3403 4.59409 18.53 4.71851 17.2107Z" fill="#FEFEFE"/>
<path d="M17.0642 21.7071C17.0662 22.0939 15.5912 23.1981 15.2482 23.425L15.4288 24.3043C14.0344 24.3351 13.855 24.61 12.5595 25.072C12.2209 25.1928 11.5985 25.329 11.229 25.41C11.7953 25.093 12.2124 24.7523 12.7035 24.339L12.7303 24.2734C12.6448 24.1635 11.5554 23.8246 11.2993 23.7291C12.0901 23.5671 12.8123 23.5463 13.6754 23.34C14.1234 22.9151 14.6685 22.1634 15.059 21.658C15.1072 22.0447 15.134 22.4412 15.1651 22.8301C15.8221 22.4976 16.4451 22.1042 17.0642 21.7071Z" fill="#FEFEFE"/>
<path d="M132.713 16.575C133.779 17.0604 137.878 18.6271 138.32 16.9141C138.323 15.9237 135.496 15.2049 134.646 14.8105C132.616 13.8691 131.532 11.6711 133.801 10.1514C135.528 8.99425 138.133 9.33357 140.135 9.75727C140.158 10.554 140.158 11.3511 140.135 12.1478C139.132 11.7355 136.237 10.5762 135.357 11.6411C135.091 12.5674 136.986 13.0985 137.617 13.3463C139.167 13.9549 140.457 14.3738 141.035 16.0775V16.9927C140.519 18.3474 139.936 18.869 138.526 19.2336C136.479 19.7633 134.756 19.3506 132.739 19.0785C132.691 18.324 132.714 17.3465 132.713 16.575Z" fill="#999999"/>
</g>
<defs>
<clipPath id="clip0_2495_2056">
<rect width="141.035" height="29" fill="white"/>
</clipPath>
</defs>
</svg>
