<svg width="99" height="29" viewBox="0 0 99 29" fill="none" xmlns="http://www.w3.org/2000/svg">
<path d="M32.2395 8.19747L23.1785 0.107256C23.0814 0.0205752 22.8872 0.0205752 22.7578 0.107256L16.1562 6.00155L9.55454 0.107256C9.45746 0.0205752 9.26329 0.0205752 9.13385 0.107256L0.0728119 8.19747C-0.0242706 8.28415 -0.0242706 8.45751 0.0728119 8.57309L6.67443 14.4674L0.0728119 20.3617C-0.0242706 20.4484 -0.0242706 20.6217 0.0728119 20.7373L9.16621 28.8564C9.26329 28.9431 9.45746 28.9431 9.5869 28.8564L16.1885 22.9621L22.7901 28.8564C22.8872 28.9431 23.0814 28.9431 23.2108 28.8564L32.3042 20.7373C32.4013 20.6506 32.4013 20.4773 32.3042 20.3617L25.7026 14.4674L32.3042 8.57309C32.4013 8.48641 32.4013 8.31304 32.3042 8.19747H32.2395ZM65.021 15.2186H52.2709C51.8825 16.461 50.5881 17.3856 49.0671 17.3567C47.3844 17.299 45.9929 16.0854 45.9281 14.583C45.8634 12.936 47.3197 11.578 49.1642 11.578C51.0088 11.578 51.9149 12.5026 52.2709 13.7161H64.9887C65.1505 13.7161 65.3123 13.6006 65.3123 13.4272C65.3123 13.2539 65.3123 13.4272 65.3123 13.4272C64.6651 5.36589 56.6072 -0.904021 47.1902 0.107256C39.8443 0.887384 33.9223 6.2327 33.1132 12.7916C32.2071 19.8705 36.8995 26.4871 43.76 27.9607C47.9992 28.972 52.3356 28.3363 54.6979 26.6605C54.795 26.5738 54.9568 26.6605 54.9568 26.7761V28.6253C54.9568 28.7697 55.0863 28.8853 55.2481 28.8853H65.0858C65.2476 28.8853 65.377 28.7697 65.377 28.6253V15.5076C65.377 15.3631 65.2476 15.2186 65.0534 15.2186H65.021ZM82.8195 0.0205752C73.8879 0.0205752 66.6391 6.49274 66.6391 14.4674C66.6391 22.442 73.8879 28.9142 82.8195 28.9142C91.7511 28.9142 98.9999 22.442 98.9999 14.4674C98.9999 6.49274 91.7511 0.0205752 82.8195 0.0205752ZM82.8195 17.3567C81.0397 17.3567 79.5834 16.0565 79.5834 14.4674C79.5834 12.8782 81.0397 11.578 82.8195 11.578C84.5993 11.578 86.0556 12.8782 86.0556 14.4674C86.0556 16.0565 84.5993 17.3567 82.8195 17.3567Z" fill="#999999"/>
</svg>
